# xmcd CD database file
#
# Track frame offsets:
#	150
#	23110
#	82085
#	118932
#	148810
#	200532
#	226110
#	257087
#	284007
#
# Disc length: 3964 seconds
#
# Revision: 0
# Processed by: cddbd v1.5.1PL0 Copyright (c) Steve Scherf et al.
# Submitted via: CDex 1.51
#
DISCID=860f7a09
DTITLE=felix Mendelssohn - ロマン主義音楽の貴公子
DYEAR=1900
DGENRE=Classical
TTITLE0=結婚行進曲　〜劇付随音楽〈真夏の夜の夢〉作品61より
TTITLE1=ヴァイオリン協奏曲ホ短調　作品64　第1楽章
TTITLE2=ヴァイオリン協奏曲ホ短調　作品64　第2楽章
TTITLE3=ヴァイオリン協奏曲ホ短調　作品64　第3楽章
TTITLE4=交響曲第4番イ長調〈イタリア〉作品90　第1楽章
TTITLE5=交響曲第4番イ長調〈イタリア〉作品90　第2楽章
TTITLE6=交響曲第4番イ長調〈イタリア〉作品90　第3楽章
TTITLE7=交響曲第4番イ長調〈イタリア〉作品90　第4楽章
TTITLE8=「葬送行進曲」〜〈無言歌集〉　第5巻　作品62第3曲
EXTD=
EXTT0=
EXTT1=
EXTT2=
EXTT3=
EXTT4=
EXTT5=
EXTT6=
EXTT7=
EXTT8=
PLAYORDER=
